master.ufo
<glyph name="parenleft" format="1">
	<unicode hex="0028"/>
	<advance width="260"/>
	<outline>
		<contour>
			<point x="128" y="-174" type="curve"/>
			<point x="148" y="-168" type="line"/>
			<point x="116" y="-88"/>
			<point x="100" y="28"/>
			<point x="100" y="128" type="curve" smooth="yes"/>
			<point x="100" y="350"/>
			<point x="180" y="544"/>
			<point x="322" y="716" type="curve"/>
			<point x="304" y="730" type="line"/>
			<point x="160" y="546"/>
			<point x="72" y="368"/>
			<point x="72" y="134" type="curve" smooth="yes"/>
			<point x="72" y="24"/>
			<point x="94" y="-88"/>
		</contour>
	</outline>
</glyph>
<glyph name="eight" format="1">
	<unicode hex="0038"/>
	<advance width="456"/>
	<outline>
		<contour>
			<point x="212" y="-12" type="curve" smooth="yes"/>
			<point x="320" y="-12"/>
			<point x="412" y="58"/>
			<point x="412" y="172" type="curve" smooth="yes"/>
			<point x="412" y="242"/>
			<point x="352" y="292"/>
			<point x="320" y="314" type="curve"/>
			<point x="320" y="318" type="line"/>
			<point x="394" y="362"/>
			<point x="450" y="416"/>
			<point x="450" y="506" type="curve" smooth="yes"/>
			<point x="450" y="602"/>
			<point x="382" y="652"/>
			<point x="304" y="652" type="curve" smooth="yes"/>
			<point x="214" y="652"/>
			<point x="134" y="590"/>
			<point x="134" y="486" type="curve" smooth="yes"/>
			<point x="134" y="432"/>
			<point x="154" y="398"/>
			<point x="192" y="362" type="curve"/>
			<point x="192" y="358" type="line"/>
			<point x="112" y="320"/>
			<point x="34" y="258"/>
			<point x="34" y="154" type="curve" smooth="yes"/>
			<point x="34" y="44"/>
			<point x="120" y="-12"/>
		</contour>
		<contour>
			<point x="296" y="330" type="curve"/>
			<point x="214" y="368"/>
			<point x="162" y="406"/>
			<point x="162" y="488" type="curve" smooth="yes"/>
			<point x="162" y="574"/>
			<point x="230" y="626"/>
			<point x="302" y="626" type="curve" smooth="yes"/>
			<point x="364" y="626"/>
			<point x="422" y="584"/>
			<point x="422" y="504" type="curve" smooth="yes"/>
			<point x="422" y="424"/>
			<point x="360" y="366"/>
		</contour>
		<contour>
			<point x="212" y="14" type="curve" smooth="yes"/>
			<point x="136" y="14"/>
			<point x="62" y="62"/>
			<point x="62" y="156" type="curve" smooth="yes"/>
			<point x="62" y="246"/>
			<point x="124" y="298"/>
			<point x="212" y="344" type="curve"/>
			<point x="298" y="298"/>
			<point x="384" y="258"/>
			<point x="384" y="166" type="curve" smooth="yes"/>
			<point x="384" y="70"/>
			<point x="298" y="14"/>
		</contour>
	</outline>
</glyph>
<glyph name="k" format="1">
	<unicode hex="006B"/>
	<advance width="436"/>
	<outline>
		<contour>
			<point x="44" y="0" type="line"/>
			<point x="72" y="0" type="line"/>
			<point x="98" y="126" type="line"/>
			<point x="236" y="266" type="line"/>
			<point x="344" y="0" type="line"/>
			<point x="374" y="0" type="line"/>
			<point x="258" y="286" type="line"/>
			<point x="444" y="478" type="line"/>
			<point x="408" y="478" type="line"/>
			<point x="110" y="176" type="line"/>
			<point x="108" y="176" type="line"/>
			<point x="216" y="722" type="line"/>
			<point x="188" y="722" type="line"/>
		</contour>
		<contour>
			<point name="aboveLC" x="210" y="730" type="move"/>
		</contour>
		<contour>
			<point name="belowLC" x="208" y="-22" type="move"/>
		</contour>
	</outline>
</glyph>
<glyph name="v" format="1">
	<unicode hex="0076"/>
	<advance width="408"/>
	<outline>
		<contour>
			<point x="136" y="0" type="line"/>
			<point x="174" y="0" type="line"/>
			<point x="438" y="478" type="line"/>
			<point x="408" y="478" type="line"/>
			<point x="238" y="166" type="line" smooth="yes"/>
			<point x="212" y="120"/>
			<point x="186" y="72"/>
			<point x="162" y="26" type="curve"/>
			<point x="158" y="26" type="line"/>
			<point x="150" y="70"/>
			<point x="144" y="120"/>
			<point x="136" y="166" type="curve" smooth="yes"/>
			<point x="86" y="478" type="line"/>
			<point x="58" y="478" type="line"/>
		</contour>
		<contour>
			<point name="aboveLC" x="266" y="502" type="move"/>
		</contour>
		<contour>
			<point name="belowLC" x="166" y="-22" type="move"/>
		</contour>
	</outline>
</glyph>
<glyph name="oslash" format="1">
	<unicode hex="00F8"/>
	<advance width="500"/>
	<outline>
		<contour>
			<point x="204" y="-12" type="curve" smooth="yes"/>
			<point x="334" y="-12"/>
			<point x="454" y="124"/>
			<point x="454" y="302" type="curve" smooth="yes"/>
			<point x="454" y="422"/>
			<point x="392" y="490"/>
			<point x="296" y="490" type="curve" smooth="yes"/>
			<point x="166" y="490"/>
			<point x="46" y="354"/>
			<point x="46" y="176" type="curve" smooth="yes"/>
			<point x="46" y="56"/>
			<point x="108" y="-12"/>
		</contour>
		<contour>
			<point x="206" y="14" type="curve" smooth="yes"/>
			<point x="122" y="14"/>
			<point x="74" y="72"/>
			<point x="74" y="182" type="curve" smooth="yes"/>
			<point x="74" y="334"/>
			<point x="186" y="464"/>
			<point x="294" y="464" type="curve" smooth="yes"/>
			<point x="378" y="464"/>
			<point x="426" y="406"/>
			<point x="426" y="296" type="curve" smooth="yes"/>
			<point x="426" y="144"/>
			<point x="314" y="14"/>
		</contour>
		<contour>
			<point x="18" y="-22" type="line"/>
			<point x="506" y="480" type="line"/>
			<point x="488" y="498" type="line"/>
			<point x="0" y="-4" type="line"/>
		</contour>
		<contour>
			<point name="aboveLC" x="318" y="502" type="move"/>
		</contour>
	</outline>
</glyph>
<glyph name="horncmb" format="1">
	<unicode hex="031B"/>
	<outline>
		<contour>
			<point x="82" y="444" type="line"/>
			<point x="170" y="444"/>
			<point x="222" y="494"/>
			<point x="222" y="550" type="curve" smooth="yes"/>
			<point x="222" y="562"/>
			<point x="220" y="572"/>
			<point x="214" y="586" type="curve"/>
			<point x="188" y="574" type="line"/>
			<point x="192" y="560"/>
			<point x="192" y="554"/>
			<point x="192" y="544" type="curve" smooth="yes"/>
			<point x="192" y="496"/>
			<point x="138" y="468"/>
			<point x="80" y="468" type="curve"/>
		</contour>
		<contour>
			<point name="_hornLC" x="94" y="478" type="move"/>
		</contour>
	</outline>
</glyph>
<glyph name="dotbelowcmb" format="1">
	<unicode hex="0323"/>
	<outline>
		<component base="dotaccentcmb" xOffset="-156" yOffset="-800"/>
		<contour>
			<point name="_belowLC" x="-6" y="-30" type="move"/>
		</contour>
	</outline>
</glyph>
<glyph name="Eth" format="1">
	<advance width="590"/>
	<outline>
		<contour>
			<point x="54" y="338" type="line"/>
			<point x="324" y="338" type="line"/>
			<point x="330" y="364" type="line"/>
			<point x="132" y="364" type="line"/>
			<point x="60" y="362" type="line"/>
		</contour>
		<component base="D" xOffset="18"/>
	</outline>
</glyph>
<glyph name="F" format="1">
	<advance width="448"/>
	<outline>
		<contour>
			<point x="40" y="0" type="line"/>
			<point x="70" y="0" type="line"/>
			<point x="136" y="326" type="line"/>
			<point x="398" y="326" type="line"/>
			<point x="404" y="352" type="line"/>
			<point x="140" y="352" type="line"/>
			<point x="196" y="634" type="line"/>
			<point x="508" y="634" type="line"/>
			<point x="514" y="660" type="line"/>
			<point x="172" y="660" type="line"/>
		</contour>
		<contour>
			<point name="aboveUC" x="366" y="682" type="move"/>
		</contour>
		<contour>
			<point name="belowLC" x="66" y="-22" type="move"/>
		</contour>
	</outline>
</glyph>
<glyph name="Germandbls" format="1">
	<advance width="602"/>
	<outline>
		<contour>
			<point x="368" y="-12" type="curve" smooth="yes"/>
			<point x="480" y="-12"/>
			<point x="556" y="74"/>
			<point x="556" y="182" type="curve" smooth="yes"/>
			<point x="556" y="252"/>
			<point x="498" y="328"/>
			<point x="372" y="362" type="curve"/>
			<point x="562" y="524" type="line"/>
			<point x="530" y="632"/>
			<point x="474" y="672"/>
			<point x="374" y="672" type="curve" smooth="yes"/>
			<point x="242" y="672"/>
			<point x="156" y="578"/>
			<point x="128" y="440" type="curve" smooth="yes"/>
			<point x="40" y="0" type="line"/>
			<point x="70" y="0" type="line"/>
			<point x="154" y="424" type="line" smooth="yes"/>
			<point x="184" y="576"/>
			<point x="268" y="646"/>
			<point x="372" y="646" type="curve" smooth="yes"/>
			<point x="452" y="646"/>
			<point x="504" y="610"/>
			<point x="530" y="532" type="curve"/>
			<point x="338" y="368" type="line"/>
			<point x="334" y="344" type="line"/>
			<point x="482" y="306"/>
			<point x="526" y="240"/>
			<point x="526" y="176" type="curve" smooth="yes"/>
			<point x="526" y="90"/>
			<point x="458" y="14"/>
			<point x="370" y="14" type="curve" smooth="yes"/>
			<point x="298" y="14"/>
			<point x="254" y="44"/>
			<point x="218" y="100" type="curve"/>
			<point x="194" y="84" type="line"/>
			<point x="230" y="24"/>
			<point x="290" y="-12"/>
		</contour>
	</outline>
</glyph>
<glyph name="H" format="1">
	<advance width="598"/>
	<outline>
		<contour>
			<point x="40" y="0" type="line"/>
			<point x="70" y="0" type="line"/>
			<point x="138" y="338" type="line"/>
			<point x="494" y="338" type="line"/>
			<point x="426" y="0" type="line"/>
			<point x="456" y="0" type="line"/>
			<point x="588" y="660" type="line"/>
			<point x="558" y="660" type="line"/>
			<point x="498" y="364" type="line"/>
			<point x="142" y="364" type="line"/>
			<point x="202" y="660" type="line"/>
			<point x="172" y="660" type="line"/>
		</contour>
		<contour>
			<point name="aboveUC" x="388" y="682" type="move"/>
		</contour>
		<contour>
			<point name="belowLC" x="266" y="-22" type="move"/>
		</contour>
	</outline>
</glyph>
<glyph name="Hbar" format="1">
	<advance width="630"/>
	<outline>
		<contour>
			<point x="80" y="496" type="line"/>
			<point x="642" y="496" type="line"/>
			<point x="648" y="522" type="line"/>
			<point x="160" y="522" type="line"/>
			<point x="86" y="520" type="line"/>
		</contour>
		<component base="H" xOffset="14"/>
	</outline>
</glyph>
<glyph name="V" format="1">
	<advance width="450"/>
	<outline>
		<contour>
			<point x="146" y="0" type="line"/>
			<point x="180" y="0" type="line"/>
			<point x="528" y="660" type="line"/>
			<point x="498" y="660" type="line"/>
			<point x="288" y="260" type="line" smooth="yes"/>
			<point x="250" y="190"/>
			<point x="210" y="110"/>
			<point x="174" y="38" type="curve"/>
			<point x="170" y="38" type="line"/>
			<point x="164" y="112"/>
			<point x="156" y="188"/>
			<point x="148" y="260" type="curve" smooth="yes"/>
			<point x="112" y="660" type="line"/>
			<point x="84" y="660" type="line"/>
		</contour>
		<contour>
			<point name="aboveUC" x="326" y="682" type="move"/>
		</contour>
		<contour>
			<point name="belowLC" x="186" y="-30" type="move"/>
		</contour>
	</outline>
</glyph>
<glyph name="a.supa" format="1">
	<advance width="323"/>
	<outline>
		<contour>
			<point x="62" y="478" type="curve" smooth="yes"/>
			<point x="62" y="428"/>
			<point x="98" y="402"/>
			<point x="142" y="402" type="curve" smooth="yes"/>
			<point x="178" y="402"/>
			<point x="222" y="424"/>
			<point x="252" y="452" type="curve"/>
			<point x="256" y="452" type="line"/>
			<point x="248" y="410" type="line"/>
			<point x="270" y="410" type="line"/>
			<point x="308" y="604" type="line" smooth="yes"/>
			<point x="310" y="616"/>
			<point x="313" y="634"/>
			<point x="313" y="646" type="curve" smooth="yes"/>
			<point x="313" y="710"/>
			<point x="280" y="734"/>
			<point x="222" y="734" type="curve" smooth="yes"/>
			<point x="186" y="734"/>
			<point x="146" y="720"/>
			<point x="114" y="702" type="curve"/>
			<point x="124" y="680" type="line"/>
			<point x="156" y="696"/>
			<point x="190" y="710"/>
			<point x="220" y="710" type="curve" smooth="yes"/>
			<point x="270" y="710"/>
			<point x="287" y="686"/>
			<point x="287" y="644" type="curve" smooth="yes"/>
			<point x="287" y="632"/>
			<point x="286" y="623"/>
			<point x="282" y="608" type="curve"/>
			<point x="154" y="602"/>
			<point x="62" y="567"/>
		</contour>
		<contour>
			<point x="278" y="586" type="curve"/>
			<point x="258" y="484" type="line"/>
			<point x="218" y="448"/>
			<point x="180" y="426"/>
			<point x="144" y="426" type="curve" smooth="yes"/>
			<point x="112" y="426"/>
			<point x="88" y="442"/>
			<point x="88" y="482" type="curve" smooth="yes"/>
			<point x="88" y="550"/>
			<point x="168" y="582"/>
		</contour>
	</outline>
</glyph>
<glyph name="ae" format="1">
	<advance width="766"/>
	<outline>
		<contour>
			<point x="40" y="102" type="curve" smooth="yes"/>
			<point x="40" y="26"/>
			<point x="96" y="-12"/>
			<point x="158" y="-12" type="curve" smooth="yes"/>
			<point x="230" y="-12"/>
			<point x="302" y="28"/>
			<point x="370" y="96" type="curve"/>
			<point x="390" y="34"/>
			<point x="450" y="-12"/>
			<point x="520" y="-12" type="curve" smooth="yes"/>
			<point x="574" y="-12"/>
			<point x="624" y="12"/>
			<point x="662" y="40" type="curve"/>
			<point x="648" y="62" type="line"/>
			<point x="612" y="36"/>
			<point x="568" y="14"/>
			<point x="522" y="14" type="curve" smooth="yes"/>
			<point x="422" y="14"/>
			<point x="364" y="110"/>
			<point x="390" y="242" type="curve"/>
			<point x="718" y="242" type="line"/>
			<point x="724" y="262"/>
			<point x="730" y="290"/>
			<point x="730" y="322" type="curve" smooth="yes"/>
			<point x="730" y="420"/>
			<point x="690" y="490"/>
			<point x="588" y="490" type="curve" smooth="yes"/>
			<point x="520" y="490"/>
			<point x="452" y="444"/>
			<point x="406" y="372" type="curve"/>
			<point x="402" y="452"/>
			<point x="354" y="490"/>
			<point x="282" y="490" type="curve" smooth="yes"/>
			<point x="228" y="490"/>
			<point x="168" y="466"/>
			<point x="124" y="440" type="curve"/>
			<point x="136" y="416" type="line"/>
			<point x="182" y="444"/>
			<point x="234" y="464"/>
			<point x="280" y="464" type="curve" smooth="yes"/>
			<point x="352" y="464"/>
			<point x="378" y="424"/>
			<point x="378" y="356" type="curve" smooth="yes"/>
			<point x="378" y="336"/>
			<point x="376" y="320"/>
			<point x="370" y="294" type="curve"/>
			<point x="170" y="286"/>
			<point x="40" y="234"/>
		</contour>
		<contour>
			<point x="396" y="268" type="line"/>
			<point x="422" y="382"/>
			<point x="508" y="464"/>
			<point x="586" y="464" type="curve" smooth="yes"/>
			<point x="672" y="464"/>
			<point x="702" y="396"/>
			<point x="702" y="328" type="curve" smooth="yes"/>
			<point x="702" y="306"/>
			<point x="700" y="288"/>
			<point x="696" y="268" type="curve"/>
		</contour>
		<contour>
			<point x="366" y="268" type="curve"/>
			<point x="356" y="214"/>
			<point x="354" y="178"/>
			<point x="362" y="122" type="curve"/>
			<point x="290" y="48"/>
			<point x="216" y="14"/>
			<point x="164" y="14" type="curve" smooth="yes"/>
			<point x="110" y="14"/>
			<point x="68" y="46"/>
			<point x="68" y="108" type="curve" smooth="yes"/>
			<point x="68" y="214"/>
			<point x="188" y="264"/>
		</contour>
	</outline>
</glyph>
<glyph name="alphalatin" format="1">
	<advance width="524"/>
	<outline>
		<component base="a"/>
		<contour>
			<point name="aboveLC" x="312" y="502" type="move"/>
		</contour>
		<contour>
			<point name="belowLC" x="222" y="-22" type="move"/>
		</contour>
	</outline>
</glyph>
<glyph name="braceleft" format="1">
	<advance width="260"/>
	<outline>
		<contour>
			<point x="130" y="-152" type="curve" smooth="yes"/>
			<point x="160" y="-152" type="line"/>
			<point x="166" y="-130" type="line"/>
			<point x="136" y="-130" type="line" smooth="yes"/>
			<point x="86" y="-130"/>
			<point x="72" y="-110"/>
			<point x="72" y="-72" type="curve" smooth="yes"/>
			<point x="72" y="-4"/>
			<point x="128" y="148"/>
			<point x="128" y="220" type="curve" smooth="yes"/>
			<point x="128" y="240"/>
			<point x="122" y="262"/>
			<point x="94" y="274" type="curve"/>
			<point x="94" y="278" type="line"/>
			<point x="136" y="290"/>
			<point x="154" y="326"/>
			<point x="166" y="382" type="curve" smooth="yes"/>
			<point x="178" y="446"/>
			<point x="186" y="516"/>
			<point x="198" y="576" type="curve" smooth="yes"/>
			<point x="212" y="648"/>
			<point x="234" y="686"/>
			<point x="296" y="686" type="curve" smooth="yes"/>
			<point x="328" y="686" type="line"/>
			<point x="332" y="708" type="line"/>
			<point x="300" y="708" type="line" smooth="yes"/>
			<point x="228" y="708"/>
			<point x="196" y="680"/>
			<point x="176" y="580" type="curve" smooth="yes"/>
			<point x="162" y="512"/>
			<point x="152" y="436"/>
			<point x="140" y="372" type="curve" smooth="yes"/>
			<point x="132" y="332"/>
			<point x="112" y="290"/>
			<point x="42" y="290" type="curve"/>
			<point x="36" y="266" type="line"/>
			<point x="96" y="266"/>
			<point x="106" y="238"/>
			<point x="106" y="212" type="curve" smooth="yes"/>
			<point x="106" y="146"/>
			<point x="48" y="-8"/>
			<point x="48" y="-78" type="curve" smooth="yes"/>
			<point x="48" y="-132"/>
			<point x="74" y="-152"/>
		</contour>
	</outline>
</glyph>
<glyph name="brevehoi.cap" format="1">
	<outline>
		<contour>
			<point x="122" y="712" type="curve" smooth="yes"/>
			<point x="211" y="712"/>
			<point x="262" y="779"/>
			<point x="278" y="834" type="curve"/>
			<point x="252" y="838" type="line"/>
			<point x="234" y="786"/>
			<point x="194" y="738"/>
			<point x="128" y="738" type="curve" smooth="yes"/>
			<point x="61" y="738"/>
			<point x="37" y="786"/>
			<point x="40" y="838" type="curve"/>
			<point x="14" y="834" type="line"/>
			<point x="11" y="779"/>
			<point x="37" y="712"/>
		</contour>
		<contour>
			<point x="124" y="796" type="line"/>
			<point x="160" y="806"/>
			<point x="203" y="824"/>
			<point x="212" y="868" type="curve" smooth="yes"/>
			<point x="221" y="916"/>
			<point x="176" y="932"/>
			<point x="125" y="934" type="curve"/>
			<point x="116" y="908" type="line"/>
			<point x="163" y="906"/>
			<point x="187" y="896"/>
			<point x="181" y="864" type="curve" smooth="yes"/>
			<point x="176" y="840"/>
			<point x="150" y="828"/>
			<point x="118" y="820" type="curve"/>
		</contour>
		<contour>
			<point name="_aboveUC" x="136" y="682" type="move"/>
		</contour>
	</outline>
</glyph>
<glyph name="cedillacmb" format="1">
	<outline>
		<contour>
			<point x="-122" y="-216" type="line"/>
			<point x="-32" y="-214"/>
			<point x="30" y="-181"/>
			<point x="30" y="-124" type="curve" smooth="yes"/>
			<point x="30" y="-96"/>
			<point x="20" y="-80"/>
			<point x="-26" y="-68" type="curve"/>
			<point x="16" y="2" type="line"/>
			<point x="-12" y="2" type="line"/>
			<point x="-68" y="-86" type="line"/>
			<point x="-23" y="-90"/>
			<point x="0" y="-102"/>
			<point x="0" y="-132" type="curve" smooth="yes"/>
			<point x="0" y="-165"/>
			<point x="-42" y="-190"/>
			<point x="-124" y="-192" type="curve"/>
		</contour>
		<contour>
			<point name="_baseLC" x="0" y="0" type="move"/>
		</contour>
	</outline>
</glyph>
<glyph name="circumflexbreve.cap" format="1">
	<outline>
		<contour>
			<point x="34" y="710" type="line"/>
			<point x="140" y="778" type="line"/>
			<point x="144" y="778" type="line"/>
			<point x="226" y="710" type="line"/>
			<point x="242" y="726" type="line"/>
			<point x="160" y="808" type="line"/>
			<point x="132" y="808" type="line"/>
			<point x="22" y="726" type="line"/>
		</contour>
		<contour>
			<point x="152" y="834" type="curve" smooth="yes"/>
			<point x="232" y="834"/>
			<point x="277" y="879"/>
			<point x="288" y="916" type="curve"/>
			<point x="262" y="920" type="line"/>
			<point x="251" y="888"/>
			<point x="217" y="860"/>
			<point x="156" y="860" type="curve" smooth="yes"/>
			<point x="95" y="860"/>
			<point x="69" y="888"/>
			<point x="70" y="920" type="curve"/>
			<point x="44" y="916" type="line"/>
			<point x="43" y="879"/>
			<point x="71" y="834"/>
		</contour>
		<contour>
			<point name="_aboveUC" x="62" y="682" type="move"/>
		</contour>
	</outline>
</glyph>
<glyph name="commaturnedabovecmb" format="1">
	<outline>
		<contour>
			<point x="102" y="542" type="curve" smooth="yes"/>
			<point x="126" y="542"/>
			<point x="142" y="554"/>
			<point x="142" y="580" type="curve" smooth="yes"/>
			<point x="142" y="598"/>
			<point x="128" y="612"/>
			<point x="112" y="612" type="curve" smooth="yes"/>
			<point x="102" y="612"/>
			<point x="90" y="610"/>
			<point x="78" y="596" type="curve"/>
			<point x="108" y="558" type="line"/>
			<point x="98" y="608" type="line"/>
			<point x="106" y="642"/>
			<point x="124" y="670"/>
			<point x="172" y="690" type="curve"/>
			<point x="164" y="712" type="line"/>
			<point x="94" y="684"/>
			<point x="68" y="642"/>
			<point x="68" y="594" type="curve" smooth="yes"/>
			<point x="68" y="566"/>
			<point x="82" y="542"/>
		</contour>
		<contour>
			<point name="_aboveLC" x="104" y="502" type="move"/>
		</contour>
	</outline>
</glyph>
<glyph name="dblgravecmb.cap" format="1">
	<outline>
		<contour>
			<point x="42" y="708" type="line"/>
			<point x="64" y="716" type="line"/>
			<point x="4" y="868" type="line"/>
			<point x="-25" y="854" type="line"/>
		</contour>
		<contour>
			<point x="180" y="708" type="line"/>
			<point x="202" y="716" type="line"/>
			<point x="142" y="868" type="line"/>
			<point x="113" y="854" type="line"/>
		</contour>
		<contour>
			<point name="_aboveUC" x="136" y="682" type="move"/>
		</contour>
	</outline>
</glyph>
<glyph name="dblgravecmb" format="1">
	<outline>
		<contour>
			<point x="28" y="568" type="line"/>
			<point x="50" y="576" type="line"/>
			<point x="-6" y="748" type="line"/>
			<point x="-36" y="734" type="line"/>
		</contour>
		<contour>
			<point x="156" y="568" type="line"/>
			<point x="178" y="576" type="line"/>
			<point x="122" y="748" type="line"/>
			<point x="92" y="734" type="line"/>
		</contour>
		<contour>
			<point name="_aboveLC" x="104" y="502" type="move"/>
		</contour>
	</outline>
</glyph>
<glyph name="fisheye" format="1">
	<advance width="910"/>
	<outline>
		<contour>
			<point x="475" y="-75" type="curve" smooth="yes"/>
			<point x="696" y="-75"/>
			<point x="895" y="76"/>
			<point x="895" y="350" type="curve" smooth="yes"/>
			<point x="895" y="618"/>
			<point x="696" y="775"/>
			<point x="475" y="775" type="curve" smooth="yes"/>
			<point x="254" y="775"/>
			<point x="55" y="618"/>
			<point x="55" y="350" type="curve" smooth="yes"/>
			<point x="55" y="76"/>
			<point x="254" y="-75"/>
		</contour>
		<contour>
			<point x="475" y="-45" type="curve" smooth="yes"/>
			<point x="284" y="-45"/>
			<point x="90" y="90"/>
			<point x="90" y="350" type="curve" smooth="yes"/>
			<point x="90" y="610"/>
			<point x="284" y="745"/>
			<point x="475" y="745" type="curve" smooth="yes"/>
			<point x="669" y="745"/>
			<point x="860" y="610"/>
			<point x="860" y="350" type="curve" smooth="yes"/>
			<point x="860" y="90"/>
			<point x="669" y="-45"/>
		</contour>
		<contour>
			<point x="475" y="60" type="curve" smooth="yes"/>
			<point x="623" y="60"/>
			<point x="760" y="167"/>
			<point x="760" y="350" type="curve" smooth="yes"/>
			<point x="760" y="529"/>
			<point x="623" y="640"/>
			<point x="475" y="640" type="curve" smooth="yes"/>
			<point x="327" y="640"/>
			<point x="190" y="529"/>
			<point x="190" y="350" type="curve" smooth="yes"/>
			<point x="190" y="167"/>
			<point x="327" y="60"/>
		</contour>
	</outline>
</glyph>
<glyph name="i.sups" format="1">
	<advance width="150"/>
	<outline>
		<contour>
			<point x="158" y="802" type="curve" smooth="yes"/>
			<point x="174" y="802"/>
			<point x="186" y="816"/>
			<point x="186" y="832" type="curve" smooth="yes"/>
			<point x="186" y="846"/>
			<point x="176" y="856"/>
			<point x="164" y="856" type="curve" smooth="yes"/>
			<point x="148" y="856"/>
			<point x="136" y="842"/>
			<point x="136" y="826" type="curve" smooth="yes"/>
			<point x="136" y="812"/>
			<point x="146" y="802"/>
		</contour>
		<contour>
			<point x="66" y="410" type="line"/>
			<point x="92" y="410" type="line"/>
			<point x="154" y="726" type="line"/>
			<point x="128" y="726" type="line"/>
		</contour>
	</outline>
</glyph>
<glyph name="iogonek.d" format="1">
	<advance width="214"/>
	<outline>
		<contour>
			<point x="22" y="-202" type="curve" smooth="yes"/>
			<point x="38" y="-202"/>
			<point x="58" y="-196"/>
			<point x="76" y="-186" type="curve"/>
			<point x="66" y="-164" type="line"/>
			<point x="52" y="-172"/>
			<point x="40" y="-176"/>
			<point x="24" y="-176" type="curve" smooth="yes"/>
			<point x="2" y="-176"/>
			<point x="-14" y="-160"/>
			<point x="-14" y="-134" type="curve" smooth="yes"/>
			<point x="-14" y="-88"/>
			<point x="22" y="-44"/>
			<point x="72" y="0" type="curve"/>
			<point x="168" y="478" type="line"/>
			<point x="140" y="478" type="line"/>
			<point x="44" y="0" type="line"/>
			<point x="46" y="0" type="line"/>
			<point x="4" y="-30"/>
			<point x="-44" y="-88"/>
			<point x="-44" y="-140" type="curve" smooth="yes"/>
			<point x="-44" y="-182"/>
			<point x="-16" y="-202"/>
		</contour>
		<contour>
			<point name="aboveLC" x="166" y="502" type="move"/>
		</contour>
	</outline>
</glyph>
<glyph name="ohorn" format="1">
	<advance width="500"/>
	<outline>
		<contour>
			<point x="397" y="442" type="line"/>
			<point x="450" y="452"/>
			<point x="526" y="485"/>
			<point x="526" y="568" type="curve" smooth="yes"/>
			<point x="526" y="584"/>
			<point x="524" y="602"/>
			<point x="518" y="620" type="curve"/>
			<point x="490" y="606" type="line"/>
			<point x="495" y="591"/>
			<point x="497" y="576"/>
			<point x="496" y="564" type="curve" smooth="yes"/>
			<point x="492" y="500"/>
			<point x="444" y="469"/>
			<point x="370" y="464" type="curve"/>
		</contour>
		<component base="o"/>
		<contour>
			<point name="aboveLC" x="318" y="502" type="move"/>
		</contour>
		<contour>
			<point name="belowLC" x="188" y="-22" type="move"/>
		</contour>
	</outline>
</glyph>
<glyph name="product" format="1">
	<advance width="618"/>
	<outline>
		<contour>
			<point x="104" y="-120" type="line"/>
			<point x="132" y="-120" type="line"/>
			<point x="132" y="614" type="line"/>
			<point x="506" y="614" type="line"/>
			<point x="506" y="-120" type="line"/>
			<point x="534" y="-120" type="line"/>
			<point x="534" y="640" type="line"/>
			<point x="104" y="640" type="line"/>
		</contour>
	</outline>
</glyph>
<glyph name="seven" format="1">
	<advance width="456"/>
	<outline>
		<contour>
			<point x="136" y="0" type="curve"/>
			<point x="168" y="0" type="line"/>
			<point x="218" y="244"/>
			<point x="286" y="426"/>
			<point x="488" y="620" type="curve"/>
			<point x="492" y="640" type="line"/>
			<point x="120" y="640" type="line"/>
			<point x="114" y="614" type="line"/>
			<point x="450" y="614" type="line"/>
			<point x="266" y="432"/>
			<point x="192" y="254"/>
		</contour>
	</outline>
</glyph>
<glyph name="triangleblackdown" format="1">
	<advance width="910"/>
	<outline>
		<contour>
			<point x="875" y="760" type="line"/>
			<point x="75" y="760" type="line"/>
			<point x="75" y="758" type="line"/>
			<point x="473" y="-80" type="line"/>
			<point x="477" y="-80" type="line"/>
			<point x="875" y="758" type="line"/>
		</contour>
	</outline>
</glyph>
<glyph name="triangleblackup" format="1">
	<advance width="910"/>
	<outline>
		<contour>
			<point x="75" y="-60" type="line"/>
			<point x="875" y="-60" type="line"/>
			<point x="875" y="-58" type="line"/>
			<point x="477" y="780" type="line"/>
			<point x="473" y="780" type="line"/>
			<point x="75" y="-58" type="line"/>
		</contour>
	</outline>
</glyph>
<glyph name="two.tnum" format="1">
	<advance width="456"/>
	<outline>
		<contour>
			<point x="-8" y="0" type="line"/>
			<point x="362" y="0" type="line"/>
			<point x="366" y="26" type="line"/>
			<point x="44" y="26" type="line"/>
			<point x="294" y="222"/>
			<point x="412" y="307"/>
			<point x="412" y="436" type="curve" smooth="yes"/>
			<point x="412" y="518"/>
			<point x="360" y="582"/>
			<point x="260" y="582" type="curve" smooth="yes"/>
			<point x="196" y="582"/>
			<point x="144" y="552"/>
			<point x="88" y="504" type="curve"/>
			<point x="106" y="482" type="line"/>
			<point x="156" y="532"/>
			<point x="210" y="556"/>
			<point x="258" y="556" type="curve" smooth="yes"/>
			<point x="344" y="556"/>
			<point x="384" y="498"/>
			<point x="384" y="430" type="curve" smooth="yes"/>
			<point x="384" y="316"/>
			<point x="274" y="239"/>
			<point x="-6" y="20" type="curve"/>
		</contour>
	</outline>
</glyph>
<glyph name="uogonek" format="1">
	<advance width="514"/>
	<outline>
		<contour>
			<point x="294" y="-202" type="curve" smooth="yes"/>
			<point x="310" y="-202"/>
			<point x="330" y="-196"/>
			<point x="348" y="-186" type="curve"/>
			<point x="338" y="-164" type="line"/>
			<point x="324" y="-172"/>
			<point x="312" y="-176"/>
			<point x="296" y="-176" type="curve" smooth="yes"/>
			<point x="274" y="-176"/>
			<point x="258" y="-160"/>
			<point x="258" y="-134" type="curve" smooth="yes"/>
			<point x="258" y="-88"/>
			<point x="302" y="-40"/>
			<point x="372" y="0" type="curve"/>
			<point x="468" y="478" type="line"/>
			<point x="440" y="478" type="line"/>
			<point x="368" y="120" type="line"/>
			<point x="292" y="46"/>
			<point x="232" y="14"/>
			<point x="188" y="14" type="curve" smooth="yes"/>
			<point x="124" y="14"/>
			<point x="98" y="46"/>
			<point x="98" y="108" type="curve" smooth="yes"/>
			<point x="98" y="128"/>
			<point x="100" y="142"/>
			<point x="106" y="172" type="curve" smooth="yes"/>
			<point x="168" y="478" type="line"/>
			<point x="140" y="478" type="line"/>
			<point x="78" y="168" type="line" smooth="yes"/>
			<point x="72" y="140"/>
			<point x="70" y="128"/>
			<point x="70" y="104" type="curve" smooth="yes"/>
			<point x="70" y="36"/>
			<point x="102" y="-12"/>
			<point x="184" y="-12" type="curve" smooth="yes"/>
			<point x="242" y="-12"/>
			<point x="296" y="28"/>
			<point x="356" y="80" type="curve"/>
			<point x="360" y="80" type="line"/>
			<point x="350" y="10" type="line"/>
			<point x="284" y="-24"/>
			<point x="228" y="-84"/>
			<point x="228" y="-140" type="curve" smooth="yes"/>
			<point x="228" y="-182"/>
			<point x="256" y="-202"/>
		</contour>
		<contour>
			<point name="aboveLC" x="308" y="502" type="move"/>
		</contour>
	</outline>
</glyph>
<glyph name="v.sups" format="1">
	<advance width="282"/>
	<outline>
		<contour>
			<point x="126" y="410" type="line"/>
			<point x="162" y="410" type="line"/>
			<point x="340" y="726" type="line"/>
			<point x="312" y="726" type="line"/>
			<point x="202" y="528" type="line"/>
			<point x="150" y="434" type="line"/>
			<point x="146" y="434" type="line"/>
			<point x="130" y="528" type="line"/>
			<point x="100" y="726" type="line"/>
			<point x="74" y="726" type="line"/>
		</contour>
	</outline>
</glyph>
<glyph name="w.sups" format="1">
	<advance width="458"/>
	<outline>
		<contour>
			<point x="114" y="410" type="line"/>
			<point x="150" y="410" type="line"/>
			<point x="244" y="604" type="line"/>
			<point x="286" y="696" type="line"/>
			<point x="288" y="696" type="line"/>
			<point x="294" y="606" type="line"/>
			<point x="314" y="410" type="line"/>
			<point x="352" y="410" type="line"/>
			<point x="506" y="726" type="line"/>
			<point x="480" y="726" type="line"/>
			<point x="382" y="522" type="line"/>
			<point x="340" y="434" type="line"/>
			<point x="336" y="434" type="line"/>
			<point x="326" y="522" type="line"/>
			<point x="308" y="726" type="line"/>
			<point x="276" y="726" type="line"/>
			<point x="178" y="522" type="line"/>
			<point x="138" y="434" type="line"/>
			<point x="134" y="434" type="line"/>
			<point x="126" y="522" type="line"/>
			<point x="106" y="726" type="line"/>
			<point x="80" y="726" type="line"/>
		</contour>
	</outline>
</glyph>
